<?xml version="1.0" standalone="no"?>
<!DOCTYPE svg PUBLIC "-//W3C//DTD SVG 20010904//EN"
 "http://www.w3.org/TR/2001/REC-SVG-20010904/DTD/svg10.dtd">
<svg version="1.0" xmlns="http://www.w3.org/2000/svg"
 width="2000.000000pt" height="2000.000000pt" viewBox="0 0 2000.000000 2000.000000"
 preserveAspectRatio="xMidYMid meet">
<metadata>
Created by potrace 1.16, written by Peter Selinger 2001-2019
</metadata>
<g transform="translate(0.000000,2000.000000) scale(0.100000,-0.100000)"
fill="#000000" stroke="none">
<path d="M11580 10269 c-19 -10 -40 -26 -47 -35 -6 -9 -16 -13 -22 -9 -6 3
-11 1 -11 -5 0 -6 -12 -15 -27 -21 -16 -6 -28 -9 -28 -7 0 1 -14 -7 -32 -20
-17 -12 -38 -22 -47 -22 -9 0 -16 -4 -16 -9 0 -5 -21 -17 -47 -27 -27 -10 -58
-24 -69 -31 -12 -8 -26 -13 -30 -11 -15 4 -104 -24 -104 -33 0 -5 -8 -9 -17
-9 -10 -1 -36 -8 -58 -16 -22 -8 -44 -16 -50 -17 -5 -2 -20 -8 -31 -15 -12 -6
-24 -8 -28 -5 -3 3 -6 2 -6 -4 0 -5 -6 -10 -12 -11 -7 -1 -29 -3 -48 -5 -19
-2 -44 -8 -55 -14 -11 -6 -26 -8 -32 -6 -7 3 -13 1 -13 -4 0 -5 -12 -10 -26
-11 -14 -1 -31 -5 -37 -9 -7 -4 -22 -6 -34 -4 -13 1 -23 -3 -23 -9 0 -7 -6
-10 -14 -7 -8 3 -17 1 -20 -6 -3 -9 -5 -9 -5 0 -1 9 -10 8 -36 -3 -19 -8 -35
-11 -35 -8 0 4 -6 2 -12 -3 -7 -5 -23 -8 -35 -7 -13 0 -23 -3 -23 -7 0 -5 -10
-9 -22 -9 -13 0 -57 -7 -98 -16 -101 -21 -196 -35 -262 -38 -10 0 -18 -4 -18
-8 0 -5 -12 -8 -27 -8 -16 1 -53 -2 -83 -5 -30 -4 -83 -7 -118 -7 -35 0 -62
-2 -60 -4 24 -23 678 -48 678 -26 0 5 34 12 76 16 91 7 376 63 384 75 3 4 55
25 117 45 61 21 113 40 115 44 2 4 37 22 78 41 41 19 84 42 95 51 11 10 33 24
48 32 52 27 203 143 233 179 16 20 31 35 34 33 4 -1 11 6 18 17 10 16 10 19
-5 18 -10 -1 -34 -10 -53 -20z"/>
<path d="M4503 8705 c-184 -40 -321 -156 -359 -305 -44 -172 45 -336 230 -425
39 -18 166 -61 281 -95 334 -98 403 -141 413 -255 4 -45 0 -61 -22 -99 -32
-55 -99 -103 -178 -128 -145 -45 -300 -1 -432 123 -74 69 -127 144 -164 232
-14 34 -27 63 -28 65 -2 4 -135 -25 -141 -32 -4 -3 16 -129 43 -279 l50 -272
61 -3 61 -3 17 53 c10 29 19 54 20 56 2 2 31 -15 66 -38 34 -22 92 -50 128
-61 84 -27 250 -36 350 -19 155 26 314 138 377 266 25 50 30 74 32 154 5 121
-17 186 -89 264 -69 75 -184 130 -424 201 -251 74 -314 99 -362 140 -49 42
-67 83 -60 136 7 56 47 103 114 136 51 25 69 28 154 28 90 0 99 -2 172 -38
100 -50 198 -145 263 -256 34 -59 51 -80 63 -77 9 3 39 10 66 17 28 6 53 14
57 18 4 3 -18 105 -48 226 -29 121 -56 230 -59 243 -5 20 -11 22 -64 22 -58 0
-58 0 -75 -39 l-18 -38 -66 33 c-121 59 -291 79 -429 49z"/>
<path d="M11113 8705 c-184 -40 -321 -156 -359 -305 -44 -172 45 -336 230
-425 39 -18 166 -61 281 -95 334 -98 403 -141 413 -255 4 -45 0 -61 -22 -99
-32 -55 -99 -103 -178 -128 -145 -45 -300 -1 -432 123 -74 69 -127 144 -164
232 -14 34 -27 63 -28 65 -2 4 -135 -25 -141 -32 -4 -3 16 -129 43 -279 l50
-272 61 -3 61 -3 17 53 c10 29 19 54 20 56 2 2 31 -15 66 -38 34 -22 92 -50
128 -61 84 -27 250 -36 350 -19 155 26 314 138 377 266 25 50 30 74 32 154 5
121 -17 186 -89 264 -69 75 -184 130 -424 201 -251 74 -314 99 -362 140 -49
42 -67 83 -60 136 7 56 47 103 114 136 51 25 69 28 154 28 90 0 99 -2 172 -38
100 -50 198 -145 263 -256 34 -59 51 -80 63 -77 9 3 39 10 66 17 28 6 53 14
57 18 4 3 -18 105 -48 226 -29 121 -56 230 -59 243 -5 20 -11 22 -64 22 -58 0
-58 0 -75 -39 l-18 -38 -66 33 c-121 59 -291 79 -429 49z"/>
<path d="M15183 8705 c-184 -40 -321 -156 -359 -305 -44 -172 45 -336 230
-425 39 -18 166 -61 281 -95 334 -98 403 -141 413 -255 4 -45 0 -61 -22 -99
-32 -55 -99 -103 -178 -128 -145 -45 -300 -1 -432 123 -74 69 -127 144 -164
232 -14 34 -27 63 -28 65 -2 4 -135 -25 -141 -32 -4 -3 16 -129 43 -279 l50
-272 61 -3 61 -3 17 53 c10 29 19 54 20 56 2 2 31 -15 66 -38 34 -22 92 -50
128 -61 84 -27 250 -36 350 -19 155 26 314 138 377 266 25 50 30 74 32 154 5
121 -17 186 -89 264 -69 75 -184 130 -424 201 -251 74 -314 99 -362 140 -49
42 -67 83 -60 136 7 56 47 103 114 136 51 25 69 28 154 28 90 0 99 -2 172 -38
100 -50 198 -145 263 -256 34 -59 51 -80 63 -77 9 3 39 10 66 17 28 6 53 14
57 18 4 3 -18 105 -48 226 -29 121 -56 230 -59 243 -5 20 -11 22 -64 22 -58 0
-58 0 -75 -39 l-18 -38 -66 33 c-121 59 -291 79 -429 49z"/>
<path d="M6447 8682 c-10 -11 -17 -35 -17 -59 0 -54 22 -73 88 -73 61 0 79
-15 87 -73 3 -23 5 -273 3 -555 -3 -586 5 -535 -97 -548 -31 -3 -62 -11 -68
-16 -16 -13 -17 -100 -1 -116 19 -19 561 -17 577 2 7 8 11 37 9 68 l-3 53 -68
9 c-110 14 -102 -31 -102 592 l0 532 24 26 c20 21 34 26 76 26 28 0 56 5 63
12 16 16 16 110 0 126 -9 9 -86 12 -283 12 -251 0 -273 -1 -288 -18z"/>
<path d="M8152 8688 c-7 -7 -12 -35 -12 -63 0 -28 5 -56 12 -63 7 -7 37 -12
68 -12 103 0 95 51 95 -572 0 -630 6 -590 -91 -602 -32 -4 -64 -12 -71 -18
-16 -13 -17 -100 -1 -116 17 -17 499 -17 516 0 7 7 12 38 12 69 0 55 -1 57
-31 63 -17 3 -47 6 -66 6 -23 0 -42 8 -58 25 l-25 24 0 493 c0 303 4 487 10
478 5 -8 166 -274 359 -590 l349 -575 75 -3 c53 -2 77 1 85 11 8 9 12 191 14
629 3 609 3 617 24 645 17 23 30 29 70 31 27 2 54 8 61 14 17 13 17 110 1 126
-9 9 -78 12 -248 12 -268 0 -270 0 -270 -77 0 -51 23 -73 78 -73 29 0 49 -7
69 -24 l28 -24 3 -389 c2 -329 1 -385 -11 -368 -7 11 -141 230 -296 488 l-283
467 -227 0 c-163 0 -230 -3 -239 -12z"/>
<path d="M13057 8682 c-10 -11 -17 -35 -17 -59 0 -54 22 -73 88 -73 61 0 79
-15 87 -73 3 -23 5 -273 3 -555 -3 -586 5 -535 -97 -548 -31 -3 -62 -11 -68
-16 -16 -13 -17 -100 -1 -116 19 -19 561 -17 577 2 7 8 11 37 9 68 l-3 53 -68
9 c-110 14 -102 -31 -102 592 l0 532 24 26 c20 21 34 26 76 26 28 0 56 5 63
12 7 7 12 35 12 63 0 28 -5 56 -12 63 -9 9 -86 12 -283 12 -251 0 -273 -1
-288 -18z"/>
</g>
</svg>
